<?xml version="1.0" encoding="UTF-8"?>
<svg id="Layer_1" data-name="Layer 1" xmlns="http://www.w3.org/2000/svg" viewBox="0 0 512 512">
  <defs>
    <style>
      .cls-1 {
        fill: #1f3a5f;
      }
    </style>
  </defs>
  <path class="cls-1" d="M491.99,122.77c-6.26-31.17-11.08-48.37-21.67-63.96-12.52-22.04-27.93-29.02-81.37-29.02h-52.48c-22.63,0-24.56,2.15-24.56,25.8v183.81h72.22c65.96,0,69.82-7.52,78.96-58.58h21.19v154.79h-21.67c-8.67-54.82-12.52-63.42-78.48-63.42h-72.22v137.05c0,69.87,6.26,74.71,72.22,80.08v22.57h-202.71v-22.57c57.3-4.84,63.56-10.21,63.56-80.08V102.34c0-69.33-6.26-73.63-61.63-77.93V.76h235.47c-4.18-.5-8.42-.76-12.73-.76H105.9C47.41,0,0,47.41,0,105.9v300.19c0,58.49,47.41,105.9,105.9,105.9h300.19c58.49,0,105.9-47.41,105.9-105.9V119.29l-20.01,3.47Z"/>
</svg>